<svg width="44" height="44" viewBox="0 0 44 44" fill="none" xmlns="http://www.w3.org/2000/svg">
<path d="M22 3.66577C21.4892 3.66577 20.9951 3.84809 20.6067 4.17993C17.4167 6.9666 12.8334 9.1666 9.16671 9.1666C8.68048 9.1666 8.21416 9.35975 7.87035 9.70357C7.52653 10.0474 7.33337 10.5137 7.33337 10.9999V23.8333C7.33337 32.9999 13.75 37.5833 21.395 40.2233C21.7902 40.3705 22.224 40.3769 22.6234 40.2416C30.25 37.5833 36.6667 32.9999 36.6667 23.8333V10.9999C36.6667 10.5137 36.4736 10.0474 36.1297 9.70357C35.7859 9.35975 35.3196 9.1666 34.8334 9.1666C31.1667 9.1666 26.6017 6.98493 23.3934 4.17993C23.005 3.84809 22.5109 3.66577 22 3.66577ZM22 3.66577V40.3333" stroke="#0084D1" stroke-width="1.5" stroke-linecap="round" stroke-linejoin="round"/>
</svg>
