<svg width="44" height="44" viewBox="0 0 44 44" fill="none" xmlns="http://www.w3.org/2000/svg">
<path d="M29.3334 31.1667H40.3334M34.8334 25.6667V36.6667M3.66669 22C3.66582 22.3507 3.76554 22.6942 3.95401 22.9899C4.14248 23.2857 4.4118 23.5211 4.73003 23.6684L20.4967 30.8367C20.9719 31.0518 21.4876 31.1631 22.0092 31.163M3.66669 31.1667C3.66582 31.5174 3.76554 31.8609 3.95401 32.1566C4.14248 32.4523 4.4118 32.6878 4.73003 32.835L20.4967 40.0034C20.9719 40.2186 21.4875 40.3299 22.0092 40.3299C22.5308 40.3299 23.0465 40.2186 23.5217 40.0034L27.401 38.2397M23.5216 3.99691C23.0439 3.77902 22.525 3.66626 22 3.66626C21.4749 3.66626 20.956 3.77902 20.4783 3.99691L4.76662 11.1469C4.4413 11.2904 4.1647 11.5253 3.97052 11.8232C3.77634 12.121 3.67295 12.4689 3.67295 12.8244C3.67295 13.18 3.77634 13.5278 3.97052 13.8257C4.1647 14.1235 4.4413 14.3585 4.76662 14.5019L20.4966 21.6702C20.9744 21.8879 21.4933 22.0005 22.0183 22.0002C22.5433 22.0005 23.0622 21.8879 23.54 21.6702L39.27 14.5202C39.5958 14.377 39.8729 14.1421 40.0675 13.844C40.2621 13.546 40.3657 13.1978 40.3657 12.8418C40.3657 12.4859 40.2621 12.1377 40.0675 11.8396C39.8729 11.5416 39.5958 11.3066 39.27 11.1634L23.5216 3.99691Z" stroke="#0084D1" stroke-width="1.5" stroke-linecap="round" stroke-linejoin="round"/>
</svg>
