<svg width="52" height="52" viewBox="0 0 52 52" fill="none" xmlns="http://www.w3.org/2000/svg">
<path d="M41.1667 15.1667V8.66667C41.1667 8.09203 40.9384 7.54093 40.5321 7.1346C40.1257 6.72827 39.5746 6.5 39 6.5H10.8333C9.68406 6.5 8.58186 6.95655 7.7692 7.7692C6.95655 8.58186 6.5 9.68406 6.5 10.8333M6.5 10.8333C6.5 11.9826 6.95655 13.0848 7.7692 13.8975C8.58186 14.7101 9.68406 15.1667 10.8333 15.1667H43.3333C43.908 15.1667 44.4591 15.3949 44.8654 15.8013C45.2717 16.2076 45.5 16.7587 45.5 17.3333V26M6.5 10.8333V41.1667C6.5 42.3159 6.95655 43.4181 7.7692 44.2308C8.58186 45.0435 9.68406 45.5 10.8333 45.5H43.3333C43.908 45.5 44.4591 45.2717 44.8654 44.8654C45.2717 44.4591 45.5 43.908 45.5 43.3333V34.6667M45.5 26H39C37.8507 26 36.7485 26.4565 35.9359 27.2692C35.1232 28.0819 34.6667 29.1841 34.6667 30.3333C34.6667 31.4826 35.1232 32.5848 35.9359 33.3975C36.7485 34.2101 37.8507 34.6667 39 34.6667H45.5M45.5 26C46.0746 26 46.6257 26.2283 47.0321 26.6346C47.4384 27.0409 47.6667 27.592 47.6667 28.1667V32.5C47.6667 33.0746 47.4384 33.6257 47.0321 34.0321C46.6257 34.4384 46.0746 34.6667 45.5 34.6667" stroke="white" stroke-width="1.5" stroke-linecap="round" stroke-linejoin="round"/>
</svg>
