<svg width="44" height="44" viewBox="0 0 44 44" fill="none" xmlns="http://www.w3.org/2000/svg">
<path d="M22 33H7.33332C6.36086 33 5.42823 32.6137 4.7406 31.9261C4.05296 31.2384 3.66666 30.3058 3.66666 29.3333V14.6667C3.66666 13.6942 4.05296 12.7616 4.7406 12.0739C5.42823 11.3863 6.36086 11 7.33332 11H36.6667C37.6391 11 38.5717 11.3863 39.2594 12.0739C39.947 12.7616 40.3333 13.6942 40.3333 14.6667V23.8333M33 22H33.0183M34.8333 40.3333V29.3333M34.8333 29.3333L40.3333 34.8333M34.8333 29.3333L29.3333 34.8333M11 22H11.0183M25.6667 22C25.6667 24.025 24.025 25.6667 22 25.6667C19.9749 25.6667 18.3333 24.025 18.3333 22C18.3333 19.975 19.9749 18.3333 22 18.3333C24.025 18.3333 25.6667 19.975 25.6667 22Z" stroke="#0084D1" stroke-width="1.5" stroke-linecap="round" stroke-linejoin="round"/>
</svg>
