<svg width="20" height="20" viewBox="0 0 20 20" fill="none" xmlns="http://www.w3.org/2000/svg">
<path d="M10 8.33335H10.0084M10 11.6667H10.0084M10 5.00002H10.0084M13.3334 8.33335H13.3417M13.3334 11.6667H13.3417M13.3334 5.00002H13.3417M6.66671 8.33335H6.67504M6.66671 11.6667H6.67504M6.66671 5.00002H6.67504M7.50004 18.3334V15.8334C7.50004 15.6123 7.58784 15.4004 7.74412 15.2441C7.9004 15.0878 8.11236 15 8.33337 15H11.6667C11.8877 15 12.0997 15.0878 12.256 15.2441C12.4122 15.4004 12.5 15.6123 12.5 15.8334V18.3334M5.00004 1.66669H15C15.9205 1.66669 16.6667 2.41288 16.6667 3.33335V16.6667C16.6667 17.5872 15.9205 18.3334 15 18.3334H5.00004C4.07957 18.3334 3.33337 17.5872 3.33337 16.6667V3.33335C3.33337 2.41288 4.07957 1.66669 5.00004 1.66669Z" stroke="#024A70" stroke-width="1.5" stroke-linecap="round" stroke-linejoin="round"/>
</svg>
