<svg width="135" height="24" viewBox="0 0 135 24" fill="none" xmlns="http://www.w3.org/2000/svg">
<g clip-path="url(#clip0_18_4726)">
<path d="M54.5768 6.73316C56.2806 6.40772 58.7369 7.07508 59.9671 8.33728C62.2506 10.6801 61.9296 14.1932 61.9272 17.2196L61.9318 23.7183L57.9734 23.7261C57.9211 20.3713 58.1075 16.7585 57.9101 13.4095C57.7475 10.6506 54.7001 9.56707 52.2841 10.8453C52.0115 11.0298 51.8159 11.1833 51.5821 11.4182C51.0775 11.9197 50.7202 12.5502 50.549 13.241C50.3158 14.2106 50.3844 16.3753 50.3845 17.4625L50.3893 23.7162L46.4428 23.7275L46.4418 6.98408C47.7381 6.99821 49.0345 6.99782 50.3308 6.98296L50.319 9.16814C51.3718 7.6424 52.7341 6.91681 54.5768 6.73316Z" fill="#024A70"/>
<path d="M36.9628 6.98584C39.0784 6.99846 41.1941 6.99853 43.3096 6.9861L43.3165 23.7211L39.4098 23.7259C39.3486 19.3609 39.4088 14.841 39.4088 10.4634C38.6231 10.465 37.7439 10.449 36.9673 10.4955L36.9628 6.98584Z" fill="#024A70"/>
<path d="M40.9744 0.145781C41.619 0.0950865 42.1441 0.139148 42.7135 0.486561C43.2609 0.818857 43.6513 1.35818 43.7963 1.98243C44.1458 3.4486 43.3541 4.65252 41.9058 4.99361C41.2382 5.12169 40.5402 5.02807 39.9619 4.65869C39.4334 4.31946 39.0606 3.78454 38.9251 3.17092C38.5825 1.61672 39.472 0.471913 40.9744 0.145781Z" fill="#024A70"/>
<path d="M64.7349 0H68.6562C68.7186 2.85421 68.7127 6.23886 68.6536 9.09534C69.9122 7.62286 71.4296 6.84697 73.374 6.69725C75.4839 6.54822 77.5676 7.23347 79.1783 8.60581C82.7813 11.7109 83.0914 17.7017 80.0283 21.2971C78.6771 22.8832 76.9909 23.6123 74.9959 24H72.8748C70.8745 23.5198 69.9858 23.0545 68.5912 21.5358L68.5958 23.7181L64.7172 23.7269L64.7189 9.38722C64.7183 6.33639 64.6554 3.03413 64.7349 0ZM73.5356 20.3111C76.2827 20.2034 78.4176 17.8797 78.2954 15.1307C78.1739 12.3818 75.8413 10.2567 73.0955 10.3931C70.3701 10.5286 68.266 12.8425 68.3876 15.5712C68.5084 18.2998 70.8089 20.418 73.5356 20.3111Z" fill="#024A70"/>
<path d="M25.9619 24C23.414 23.4668 21.3666 22.5796 19.8671 20.2803C18.5711 18.2523 18.1262 15.7946 18.6289 13.4405C19.0825 11.2408 20.3945 9.31339 22.2737 8.0861C25.7448 5.82855 30.7696 6.30155 33.632 9.3487C35.6191 11.4641 36.3469 14.4666 35.739 17.2798C35.2755 19.4964 33.937 21.4315 32.0274 22.6458C30.4635 23.6513 29.8795 23.5844 28.2963 24H25.9619ZM27.5504 20.3022C30.2684 20.0996 32.3138 17.7394 32.1305 15.0174C31.9471 12.2953 29.6036 10.2314 26.883 10.3959C24.1352 10.562 22.0484 12.9362 22.2336 15.6854C22.4188 18.4346 24.8052 20.5068 27.5504 20.3022Z" fill="#024A70"/>
<path d="M125.219 24C123.693 23.5446 123.081 23.665 121.478 22.6176C119.609 21.404 118.309 19.4857 117.873 17.2984C116.5 10.7331 122.061 5.36675 128.523 6.94316C132.188 7.83734 133.812 10.2598 134.531 13.7778V16.3101L121.669 16.3114C121.932 17.3265 122.146 18.0784 122.824 18.9242C124.581 21.1139 128.664 21.1968 130.168 18.6453C130.249 18.5052 130.325 18.362 130.395 18.2161L134.457 18.2173C133.513 21.7713 131.01 23.3317 127.599 24H125.219ZM121.922 13.5341L127.01 13.5307L130.563 13.5315C129.9 11.0569 128.137 9.78213 125.546 10.143C123.568 10.5309 122.496 11.6184 121.922 13.5341Z" fill="#024A70"/>
<path d="M84.1005 12.3463C84.4624 10.491 85.0911 9.04432 86.7274 7.92763C88.6856 6.64136 91.3315 6.46048 93.5893 6.87024C95.0889 7.1424 96.5597 7.90994 97.4111 9.19364C98.5652 10.9342 98.3846 13.0398 98.401 15.0275C98.4154 16.7627 98.3773 18.5115 98.399 20.2499H100.303C100.286 21.4058 100.282 22.5618 100.29 23.7177C97.6114 23.7401 95.7504 24.1253 94.8623 21.0982C94.12 22.5021 93.3304 23.1675 91.7946 23.6781C91.258 23.8566 90.8119 23.8787 90.3685 24H88.5883C87.4966 23.7676 86.4535 23.5391 85.5371 22.852C85.1226 22.5493 84.7153 22.1496 84.4421 21.7122C83.3759 20.0084 83.4475 17.3154 84.9157 15.856C85.1719 15.6015 85.4504 15.3802 85.7539 15.1853C86.6374 14.6188 87.6503 14.3002 88.6698 14.0844C90.1504 13.6848 93.8277 13.8688 94.2987 12.1858C94.4025 11.8153 94.2994 11.2791 94.0813 10.9571C93.722 10.4268 93.1078 10.1517 92.4962 10.0323C91.4366 9.82547 90.1012 9.89931 89.1802 10.5154C88.4517 11.0025 88.1942 11.5411 87.9715 12.3579L84.1005 12.3463ZM88.2468 20.2473C90.136 21.3953 92.8358 20.6473 93.9768 18.7754C94.6147 17.7294 94.5332 16.7173 94.5069 15.5494L94.4452 15.4467C94.1811 15.7243 94.1233 15.7896 93.7955 15.9933C92.1776 16.9988 87.5754 16.1981 87.5675 18.943C87.5662 19.4209 87.7672 19.8008 88.1036 20.1185C88.1502 20.1626 88.1982 20.2055 88.2468 20.2473Z" fill="#024A70"/>
<path d="M105.177 18.4184C105.472 19.3183 105.759 19.8951 106.671 20.344C107.881 20.9407 109.515 20.9436 110.796 20.5798C111.707 20.3213 112.481 19.4532 112.158 18.4556C111.775 17.2766 110.142 17.2252 109.131 17.0549C106.538 16.675 103.191 16.4245 102.122 13.5523C101.704 12.4183 101.718 10.9276 102.251 9.83347C103.913 6.42099 109.447 6.00316 112.521 7.477C113.865 8.10817 114.895 9.25938 115.373 10.6658C115.531 11.1166 115.621 11.5659 115.679 12.0384L111.916 12.0386C111.278 9.90863 109.045 9.61043 107.097 10.0768C106.441 10.2337 105.974 10.6395 105.642 11.2228C105.62 11.714 105.602 12.1416 105.955 12.5342C107.45 14.1974 113.263 12.7561 115.375 16.2031C115.874 17.018 116.072 18.0026 116.029 18.9506C115.971 20.2455 115.514 21.3923 114.548 22.2738C113.314 23.4001 111.879 23.6444 110.329 24H107.555C106.77 23.8293 106.099 23.7179 105.339 23.4393C103.067 22.6065 101.624 20.8526 101.374 18.4229L105.177 18.4184Z" fill="#024A70"/>
<path d="M0 14.4246C0.442723 11.821 1.35913 9.82112 3.56049 8.26336C7.28058 5.63089 13.0499 6.28158 15.7137 10.1224C16.5462 11.3227 16.743 12.0659 17.0673 13.4107L12.9437 13.4144C12.4324 12.1274 11.7959 11.2289 10.482 10.6643C9.33751 10.1697 8.04356 10.1503 6.88481 10.6106C2.97461 12.1792 2.94378 18.4311 6.80992 20.0513C7.88079 20.5001 9.28844 20.5381 10.3737 20.0948C11.749 19.5093 12.395 18.5759 12.9605 17.2668L17.0298 17.2672C16.2236 21.2348 13.669 23.2768 9.83852 24H7.50202C7.22606 23.9168 6.83068 23.8583 6.5384 23.7847C2.61994 22.7978 0.546591 20.0492 0 16.2156V14.4246Z" fill="#024A70"/>
</g>
<defs>
<clipPath id="clip0_18_4726">
<rect width="134.531" height="24" fill="white"/>
</clipPath>
</defs>
</svg>
