<svg width="88" height="23" viewBox="0 0 88 23" fill="none" xmlns="http://www.w3.org/2000/svg">
<path d="M17 0C18.6569 0 20 1.34315 20 3V17C20 18.6569 18.6569 20 17 20H4.68164L13.1699 12.1484C13.2722 12.0538 13.3301 11.9206 13.3301 11.7812V3.0918C13.3301 2.66396 12.8279 2.43365 12.5039 2.71289L0.173828 13.3506C0.0638542 13.4455 0.000141078 13.5833 0 13.7285V3C0 1.34315 1.34315 6.44255e-08 3 0H17Z" fill="#024A70"/>
<path d="M28.114 17H26.134V1.292H34.912V3.03H28.114V8.596H34.494V10.334H28.114V17Z" fill="#024A70"/>
<path d="M38.3342 5.208V17H36.3982V5.208H38.3342ZM37.3882 0.785999C37.6815 0.785999 37.9382 0.888666 38.1582 1.094C38.3929 1.28467 38.5102 1.59267 38.5102 2.018C38.5102 2.42867 38.3929 2.73667 38.1582 2.942C37.9382 3.14733 37.6815 3.25 37.3882 3.25C37.0655 3.25 36.7942 3.14733 36.5742 2.942C36.3542 2.73667 36.2442 2.42867 36.2442 2.018C36.2442 1.59267 36.3542 1.28467 36.5742 1.094C36.7942 0.888666 37.0655 0.785999 37.3882 0.785999Z" fill="#024A70"/>
<path d="M46.8661 4.988C48.2741 4.988 49.3374 5.33267 50.0561 6.022C50.7747 6.69667 51.1341 7.79667 51.1341 9.322V17H49.2201V9.454C49.2201 8.50067 49.0074 7.78933 48.5821 7.32C48.1567 6.85067 47.4894 6.616 46.5801 6.616C45.2747 6.616 44.3727 6.98267 43.8741 7.716C43.3754 8.44933 43.1261 9.50533 43.1261 10.884V17H41.1901V5.208H42.7521L43.0381 6.814H43.1481C43.4121 6.40333 43.7347 6.066 44.1161 5.802C44.5121 5.52333 44.9447 5.318 45.4141 5.186C45.8834 5.054 46.3674 4.988 46.8661 4.988Z" fill="#024A70"/>
<path d="M59.5197 4.988C60.9717 4.988 62.1377 5.494 63.0177 6.506C63.9124 7.518 64.3597 9.04333 64.3597 11.082C64.3597 12.4167 64.1544 13.546 63.7437 14.47C63.3477 15.3793 62.783 16.0687 62.0497 16.538C61.331 16.9927 60.4804 17.22 59.4977 17.22C58.8964 17.22 58.361 17.1393 57.8917 16.978C57.4224 16.8167 57.019 16.6113 56.6817 16.362C56.359 16.098 56.0804 15.812 55.8457 15.504H55.7137C55.743 15.7533 55.7724 16.0687 55.8017 16.45C55.831 16.8313 55.8457 17.1613 55.8457 17.44V22.28H53.9097V5.208H55.4937L55.7577 6.814H55.8457C56.0804 6.47667 56.359 6.16867 56.6817 5.89C57.019 5.61133 57.415 5.39133 57.8697 5.23C58.339 5.06867 58.889 4.988 59.5197 4.988ZM59.1677 6.616C58.3757 6.616 57.7377 6.77 57.2537 7.078C56.7697 7.37133 56.4177 7.81867 56.1977 8.42C55.9777 9.02133 55.8604 9.784 55.8457 10.708V11.082C55.8457 12.05 55.9484 12.8713 56.1537 13.546C56.359 14.2207 56.7037 14.734 57.1877 15.086C57.6864 15.438 58.361 15.614 59.2117 15.614C59.9304 15.614 60.517 15.416 60.9717 15.02C61.441 14.624 61.7857 14.0887 62.0057 13.414C62.2404 12.7247 62.3577 11.94 62.3577 11.06C62.3577 9.71067 62.0937 8.63267 61.5657 7.826C61.0524 7.01933 60.253 6.616 59.1677 6.616Z" fill="#024A70"/>
<path d="M71.0308 5.01C72.4682 5.01 73.5315 5.32533 74.2208 5.956C74.9102 6.58667 75.2548 7.59133 75.2548 8.97V17H73.8468L73.4728 15.328H73.3848C73.0475 15.7533 72.6955 16.1127 72.3288 16.406C71.9768 16.6847 71.5662 16.89 71.0968 17.022C70.6422 17.154 70.0848 17.22 69.4248 17.22C68.7208 17.22 68.0828 17.0953 67.5108 16.846C66.9535 16.5967 66.5135 16.2153 66.1908 15.702C65.8682 15.174 65.7068 14.514 65.7068 13.722C65.7068 12.5487 66.1688 11.6467 67.0928 11.016C68.0168 10.3707 69.4395 10.0187 71.3608 9.96L73.3628 9.894V9.19C73.3628 8.20733 73.1502 7.52533 72.7248 7.144C72.2995 6.76267 71.6982 6.572 70.9208 6.572C70.3048 6.572 69.7182 6.66733 69.1608 6.858C68.6035 7.034 68.0828 7.23933 67.5988 7.474L67.0048 6.022C67.5182 5.74333 68.1268 5.50867 68.8308 5.318C69.5348 5.11267 70.2682 5.01 71.0308 5.01ZM71.6028 11.302C70.1362 11.3607 69.1168 11.5953 68.5448 12.006C67.9875 12.4167 67.7088 12.996 67.7088 13.744C67.7088 14.404 67.9068 14.888 68.3028 15.196C68.7135 15.504 69.2342 15.658 69.8648 15.658C70.8622 15.658 71.6908 15.3867 72.3508 14.844C73.0108 14.2867 73.3408 13.436 73.3408 12.292V11.236L71.6028 11.302Z" fill="#024A70"/>
<path d="M76.1689 5.208H78.2369L80.7889 11.918C80.9355 12.314 81.0675 12.6953 81.1849 13.062C81.3169 13.4287 81.4342 13.788 81.5369 14.14C81.6395 14.4773 81.7202 14.8073 81.7789 15.13H81.8669C81.9549 14.7633 82.0942 14.2867 82.2849 13.7C82.4755 13.0987 82.6735 12.4973 82.8789 11.896L85.2769 5.208H87.3669L82.2849 18.628C82.0062 19.3613 81.6762 19.9993 81.2949 20.542C80.9282 21.0993 80.4735 21.5247 79.9309 21.818C79.4029 22.126 78.7575 22.28 77.9949 22.28C77.6429 22.28 77.3349 22.258 77.0709 22.214C76.8069 22.1847 76.5795 22.148 76.3889 22.104V20.564C76.5502 20.5933 76.7409 20.6227 76.9609 20.652C77.1955 20.6813 77.4375 20.696 77.6869 20.696C78.1415 20.696 78.5302 20.608 78.8529 20.432C79.1902 20.2707 79.4762 20.0287 79.7109 19.706C79.9455 19.398 80.1435 19.0313 80.3049 18.606L80.9209 17.044L76.1689 5.208Z" fill="#024A70"/>
</svg>
