<svg width="150" height="24" viewBox="0 0 150 24" fill="none" xmlns="http://www.w3.org/2000/svg">
<g clip-path="url(#clip0_18_4780)">
<path d="M118.329 6.24763C118.643 6.19589 119.086 6.20505 119.41 6.20579C122.347 6.21244 125.47 7.33692 126.087 10.5793C126.388 12.1602 126.269 13.96 126.269 15.5948L126.268 23.1902L121.598 23.1902C121.602 22.1795 121.654 20.1099 121.536 19.1803C121.067 20.1326 120.994 21.07 120.242 21.9657C118.447 24.1041 115.232 23.8335 113.183 22.2258C111.858 21.0141 111.404 18.8614 111.935 17.1763C112.927 14.0207 116.869 13.8319 119.578 13.2599C120.814 12.9989 121.796 12.3728 121.11 10.985C120.491 9.90096 118.674 9.91706 117.705 10.4555C116.996 10.8497 116.815 11.3996 116.623 12.1253C115.19 12.06 113.343 12.111 111.877 12.1083C112.759 8.24855 114.253 6.71583 118.329 6.24763ZM117.176 19.6183C117.825 20.0377 118.601 20.2284 119.366 20.0642C119.98 19.9338 120.516 19.5619 120.851 19.0324C121.319 18.305 121.496 16.3224 121.289 15.5152C120.942 15.7576 120.738 15.8833 120.353 16.0479C119.087 16.5895 116.977 16.5038 116.574 18.1422C116.47 18.5664 116.87 19.3251 117.176 19.6183Z" fill="#024A70"/>
<path d="M83.3291 6.24812C83.4624 6.21811 84.301 6.20047 84.4658 6.20465C86.3328 6.25267 88.3543 6.63381 89.7283 7.99525C90.624 8.87337 91.1836 10.2854 91.2488 11.5383C91.3147 12.8088 91.2737 14.1656 91.273 15.4498L91.2715 23.1904L86.5803 23.1908C86.584 22.0199 86.6309 20.4005 86.5444 19.2681C86.0398 20.1973 85.9636 21.1625 85.199 22.0303C83.3599 24.1178 80.1387 23.8176 78.1245 22.166C76.8604 20.821 76.4187 18.9684 76.9006 17.3199C78.03 13.4592 82.7293 14.0618 85.6714 12.8823C86.8521 12.4091 86.3987 10.3977 84.9448 10.1896C83.231 9.94415 82.0679 10.3049 81.6409 12.111L76.9212 12.1098C77.3635 8.31764 79.7322 6.6584 83.3291 6.24812ZM81.679 17.8124C81.6438 18.6404 81.5955 19.0839 82.2796 19.6914C83.1936 20.2134 84.4321 20.3013 85.3037 19.6404C86.5357 18.7065 86.4148 16.971 86.3269 15.5989C86.3262 15.5839 86.2866 15.534 86.2756 15.5213C84.3765 16.9096 82.7344 16.0365 81.679 17.8124Z" fill="#024A70"/>
<path d="M41.0246 6.24378C43.953 5.87987 46.56 7.42567 47.1789 10.4027C47.5716 12.292 47.4518 14.2142 47.4508 16.136L47.4458 23.19L42.4896 23.1903L42.4966 16.4524C42.4971 14.9731 42.7092 12.4637 41.934 11.2099C41.0839 9.83489 38.7545 9.69075 37.4962 10.5626C36.6272 11.1646 36.459 11.9178 36.2672 12.8879C36.1326 16.043 36.244 19.9769 36.2448 23.1913L31.2807 23.1907L31.2869 6.49252L35.966 6.49246C35.9665 7.08359 35.8854 10.5529 36.0646 10.8702C36.6679 10.7503 36.4665 6.90561 41.0246 6.24378Z" fill="#024A70"/>
<path d="M101.046 6.24809C101.069 6.2435 101.092 6.2395 101.114 6.2361C102.981 5.96076 105.933 6.64519 107.417 7.84494C109.384 9.43574 110.087 11.041 110.425 13.4C108.766 13.4203 107.071 13.4038 105.408 13.4055C104.859 10.6553 102.363 9.70084 99.9053 10.8896C97.7505 11.9317 97.4897 15.4085 98.5378 17.3218C98.9949 18.176 99.7807 18.8078 100.713 19.0721C102.013 19.4462 103.649 19.1882 104.607 18.1757C105.159 17.5934 105.35 16.9233 105.563 16.177L107.19 16.1778L110.533 16.1766C110.482 17.6175 109.758 19.3869 108.868 20.5065C105.969 24.1526 99.4204 24.3397 95.8865 21.5736C92.3555 18.8098 92.0683 12.7596 94.8135 9.3467C96.4504 7.31584 98.5305 6.53426 101.046 6.24809Z" fill="#024A70"/>
<path d="M55.5721 6.2486C55.599 6.24273 55.6261 6.23788 55.6534 6.23405C55.9019 6.20053 56.2835 6.20604 56.5413 6.20676C60.1203 6.21679 62.8748 7.59606 63.3983 11.4181L58.7765 11.4246C58.6961 11.2145 58.5971 10.9589 58.499 10.7614C57.7106 9.17311 54.0013 9.41662 54.0261 11.4403C54.0116 11.8503 54.5641 12.4171 54.9606 12.5033C57.4231 13.0384 60.1667 12.6014 62.2734 14.3163C63.7959 15.576 63.9853 18.2842 63.2402 19.9976C62.0733 22.6814 59.3268 23.2768 56.7318 23.4692C52.8964 23.4066 49.5871 22.2555 48.9983 17.9198C50.6377 17.9058 52.2771 17.9003 53.9166 17.903C54.3836 20.1135 57.1373 20.4176 58.6523 19.0012C58.8504 18.8159 59.0894 18.1866 59.0193 17.925C58.5271 16.0885 55.4958 16.6835 54.0644 16.3362C51.7164 16.0204 49.6789 15.0098 49.4569 12.3606C49.1139 8.26682 52.0333 6.64896 55.5721 6.2486Z" fill="#024A70"/>
<path d="M68.2682 2.94864L71.3976 2.94269L71.3986 6.49025L75.7369 6.49311L75.7361 10.3952L71.3942 10.404C71.4014 11.8685 71.4006 13.3331 71.3918 14.7976C71.383 17.6819 71.2155 19.9175 75.0931 19.1773C75.1099 20.4607 75.0974 21.7719 75.0989 23.0576L75.0564 23.1497C74.5782 23.3618 73.1844 23.4569 72.6462 23.4557C69.9665 23.4493 67.3529 22.4704 66.6785 19.588C66.3296 18.0962 66.4258 16.6499 66.4267 15.121L66.4335 10.3957L64.4461 10.3968L64.4442 7.03477C67.2294 6.61226 68.0009 5.74715 68.2682 2.94864Z" fill="#024A70"/>
<path d="M142.084 2.94932L145.18 2.94586L145.179 6.4903C146.601 6.5095 148.066 6.49142 149.492 6.49183L149.487 10.3947L145.176 10.4035L145.173 14.6705C145.167 15.6287 145.109 16.6555 145.245 17.5979C145.502 19.3716 147.493 19.46 148.886 19.1687L148.892 20.8903L148.891 23.1607C145.838 23.8069 141.756 23.5228 140.575 20.0713C140.065 18.5805 140.251 16.4454 140.251 14.842L140.251 6.46508C141.749 5.69901 141.894 4.45186 142.084 2.94932Z" fill="#024A70"/>
<path d="M8.46084 15.1718C8.47857 15.1698 8.49629 15.1677 8.51402 15.1656C12.0961 14.854 15.5516 16.9104 16.7239 20.3578C17.062 21.3521 17.1616 22.1494 17.2331 23.1933L10.0709 23.1922L1.12781 23.2044C1.31398 18.6319 3.86554 15.696 8.46084 15.1718Z" fill="#024A70"/>
<path d="M136.774 6.23397C137.577 6.16934 137.935 6.25306 138.71 6.40773L138.702 10.7695C138.155 10.6484 137.595 10.5894 137.034 10.5939C132.911 10.5954 133.452 13.6523 133.453 16.6815L133.455 23.1906L128.51 23.1911L128.514 20.817L128.523 6.48915L133.074 6.48757C133.083 7.55815 132.989 10.7338 133.176 11.5718C134.041 9.35075 133.611 6.84911 136.774 6.23397Z" fill="#024A70"/>
<path d="M24.0262 6.49726L28.9763 6.49347L28.9785 23.1921C27.3614 23.1617 25.6502 23.1903 24.0253 23.1901L24.0262 6.49726Z" fill="#024A70"/>
<path d="M6.86758 0.283154L11.4776 0.278381L11.4784 5.2277C11.4777 6.06748 11.5038 7.33474 11.4372 8.1533C12.636 6.29929 14.4894 2.61001 17.1987 4.36874C17.7623 4.73766 18.1556 5.31559 18.2918 5.97484C18.4427 6.67745 18.3064 7.4112 17.9133 8.01296C17.5003 8.64325 16.5255 9.33003 15.8633 9.71557C13.633 11.0141 11.3832 12.7876 9.14641 14.024L3.99222 10.7079C2.59488 9.80937 0.375793 8.73661 0.00657756 7.01991C0.00431243 7.00934 0.00211985 6.99874 0 6.98814V6.08513C0.42132 4.44748 1.58404 3.69208 3.23545 4.04824C4.64855 4.353 6.12349 6.99143 6.8777 8.14027L6.86758 0.283154Z" fill="#024A70"/>
<path d="M25.9422 0H27.0741C27.4164 0.0810959 27.7287 0.182679 28.0398 0.35165C28.6507 0.682346 29.1054 1.24166 29.304 1.90686C30.0996 4.59331 27.2713 6.35985 24.9387 5.16585C23.682 4.52253 23.1655 2.6084 23.9155 1.40599C24.4396 0.565634 24.9986 0.260685 25.9422 0Z" fill="#024A70"/>
</g>
<defs>
<clipPath id="clip0_18_4780">
<rect width="150" height="24" fill="white"/>
</clipPath>
</defs>
</svg>
