<svg width="108" height="24" viewBox="0 0 108 24" fill="none" xmlns="http://www.w3.org/2000/svg">
<g clip-path="url(#clip0_18_4712)">
<path d="M71.918 6.82062C74.9259 6.65032 78.1436 8.56368 78.7955 11.6226C79.1248 13.166 79.002 15.0014 79.002 16.5957L78.9983 23.5331L74.1329 23.5302C74.077 21.4742 74.1653 19.3198 74.1298 17.2544C74.1083 16.1009 74.2003 14.9393 74.0012 13.797C73.5333 11.1107 70.277 10.704 68.3302 12.0993C68.2471 12.1722 68.1661 12.2476 68.0876 12.3253C66.7928 13.6174 67.1231 15.7918 67.1237 17.5031V23.5321L62.1929 23.5307L62.1976 7.267L67.0353 7.26705C67.0458 7.88588 67.0442 8.51364 67.0479 9.1333C68.0359 7.40902 70.0914 6.92672 71.918 6.82062Z" fill="#024A70"/>
<path d="M50.1621 7.26367L55.1523 7.26895L55.1602 9.36553C56.2512 7.91538 58.1791 7.30545 59.9268 7.26388C59.967 8.73766 59.9566 10.5376 59.9241 12.0091C58.2215 12.0699 56.453 12.7943 55.5862 14.3399C55.1487 15.12 55.1816 15.8967 55.191 16.7582L55.1884 23.5332L50.1554 23.5317L50.1621 7.26367Z" fill="#024A70"/>
<path d="M88.5101 24C87.8336 23.8606 87.0782 23.7253 86.4289 23.5025C84.6803 22.9023 83.1104 21.6472 82.0994 20.1045C80.8981 18.2713 80.4035 15.9284 80.8437 13.7751C81.3084 11.4982 82.6044 9.50178 84.5553 8.22214C86.51 6.95145 88.8917 6.51647 91.1694 7.01435C92.3043 7.25189 93.148 7.70993 94.1261 8.27825L94.1324 7.2669L98.9868 7.26695L98.9957 23.5324C97.4034 23.5332 95.7174 23.5633 94.1329 23.5307L94.1324 22.484C93.1334 23.1389 92.3665 23.4973 91.183 23.7718C90.9043 23.8365 90.3429 23.9353 90.115 24H88.5101ZM90.4344 19.6269C92.7659 19.2176 94.3269 16.9989 93.9249 14.6657C93.5229 12.3325 91.3095 10.7642 88.9758 11.159C86.6312 11.5554 85.0551 13.7812 85.4587 16.1247C85.8622 18.4683 88.0924 20.038 90.4344 19.6269Z" fill="#024A70"/>
<path d="M37.1216 24C36.4498 23.8603 35.7507 23.7413 35.1023 23.5177C28.3974 21.2069 27.2379 12.1128 33.1953 8.20959C35.1476 6.94842 37.5221 6.51856 39.7924 7.01519C40.8066 7.2281 41.8818 7.73195 42.7558 8.29493L42.762 7.26632C44.3634 7.26481 45.9823 7.25101 47.5823 7.26821L47.5869 17.7348C47.5867 19.6367 47.6174 21.6421 47.5805 23.5338C45.9916 23.5338 44.346 23.5567 42.7621 23.5307L42.7611 22.4622C41.7874 23.143 40.9434 23.5066 39.7834 23.7778C39.5106 23.8416 38.9922 23.9294 38.7598 24H37.1216ZM38.9922 19.6307C41.3356 19.2515 42.9261 17.0416 42.5419 14.6986C42.1578 12.3556 39.9449 10.7695 37.6033 11.1587C35.2686 11.5468 33.6887 13.752 34.0717 16.0879C34.4547 18.4238 36.656 20.0088 38.9922 19.6307Z" fill="#024A70"/>
<path d="M13.4489 0H18.7087C18.6071 5.33391 16.8895 9.52497 13.1925 13.3475C15.1116 16.0222 17.1038 18.6529 19.0377 21.3179C19.5732 22.0557 20.1164 22.7999 20.6686 23.5243C18.5238 23.5812 16.1535 23.5377 13.9951 23.5329L8.55054 16.1076L6.84334 13.7738C6.56743 13.3959 6.17729 12.8189 5.87643 12.4878C7.02166 11.5554 8.1226 10.8848 9.22914 9.8194C12 7.15153 13.3695 3.83237 13.4489 0Z" fill="#024A70"/>
<path d="M0 0H5.20637L5.20373 23.5326C3.48396 23.5344 1.71551 23.5141 0 23.5408V0Z" fill="#024A70"/>
<path d="M22.2582 0H27.3465L27.3401 23.5329L22.2561 23.5307L22.2582 0Z" fill="#024A70"/>
<circle cx="104.104" cy="20.8376" r="3" fill="#024A70"/>
</g>
<defs>
<clipPath id="clip0_18_4712">
<rect width="108" height="24" fill="white"/>
</clipPath>
</defs>
</svg>
