<svg width="82" height="80" viewBox="0 0 82 80" fill="none" xmlns="http://www.w3.org/2000/svg">
<path d="M14.1896 2.67358C14.3268 2.65808 14.5258 2.64979 14.6681 2.64797C16.0066 2.63084 17.3528 2.64134 18.6912 2.64197L26.2161 2.64348L49.3163 2.64364L61.2674 2.64268L64.6251 2.64029C65.7834 2.63938 66.8016 2.60702 67.9527 2.79871C70.0891 3.17201 72.0661 4.17127 73.6337 5.66973C75.7265 7.67009 76.9466 10.4147 77.0291 13.3084C77.0676 14.6346 77.0331 16.1041 77.0319 17.4445L77.0311 25.1835L77.0315 48.9529L77.0331 60.3778L77.0343 63.6C77.0347 64.5405 77.0724 65.4051 76.9264 66.338C76.592 68.5654 75.5793 70.6362 74.0256 72.2676C72.4314 73.9413 70.3541 75.0745 68.0836 75.5088C66.7155 75.769 64.4046 75.6814 62.9341 75.6814H55.1627L31.9303 75.6825L24.3563 75.6833C23.3373 75.6829 22.1821 75.6445 21.1843 75.6675C21.5054 75.251 22.5885 74.2836 23.0264 73.8807L26.0743 71.0674L32.0493 65.5423C32.9123 64.7455 33.7909 63.9043 34.6663 63.1308C35.1181 62.6664 35.7343 62.1301 36.2181 61.6847L38.9705 59.1404L47.404 51.3347L49.997 48.9387C50.398 48.569 50.809 48.1994 51.2013 47.8289C51.6844 47.372 52.2199 46.9595 52.5539 46.3772C52.6673 46.1801 52.6792 45.728 52.6792 45.5055C52.6796 43.0095 52.6761 40.5139 52.6761 38.0181L52.6776 22.6327L52.6788 16.8322C52.6788 16.1002 52.7768 13.9693 52.586 13.3511C52.4377 12.871 52.083 12.4954 51.6348 12.2793C51.212 12.0754 50.636 12.0439 50.1961 12.2154C49.5511 12.467 47.4901 14.3983 46.8166 14.9797L42.4969 18.7069L22.2707 36.1579L10.6225 46.2059L6.67979 49.6094C6.01102 50.1857 5.33054 50.7596 4.66832 51.343C4.32453 51.6461 4.18827 51.9058 4.01128 52.316C3.91805 49.1366 3.97324 45.7541 3.97332 42.5581L3.97356 25.8428L3.97312 17.2218C3.97193 15.6749 3.88637 13.2634 4.1237 11.8113C4.44777 9.89751 5.26676 8.10178 6.49939 6.60232C8.48338 4.17365 11.12 2.98085 14.1896 2.67358Z" fill="white"/>
</svg>
